<svg xmlns="http://www.w3.org/2000/svg" width="413.16" height="362.87"><path data-name="シェイプ 4 のコピー" d="M208.16-.01L69.38 80.63l69.39 40.32 69.39-40.32V-.01zm138.77 0L208.16 80.63l69.39 40.32 69.38-40.32V-.01zM208.16 241.91L69.38 322.55l69.39 40.33 69.39-40.33v-80.64zm138.77 0l-138.77 80.64 69.39 40.33 69.38-40.33v-80.64zM138.77 120.95L-.01 201.59l69.39 40.32 69.39-40.32v-80.64zm138.78 0l-138.78 80.64 69.39 40.32 69.39-40.32v-80.64zm138.77 0l-138.77 80.64 69.38 40.32 69.39-40.32v-80.64z" fill="#272e30" fill-rule="evenodd"/></svg>