<svg xmlns="http://www.w3.org/2000/svg" width="1600" height="156.19"><path data-name="シェイプ 6 のコピー" d="M176.26 0L-.61 104.12l88.43 52.06 88.44-52.06V0zm176.87 0L176.26 104.12l88.43 52.06 88.44-52.06V0zM530 0L353.13 104.12l88.43 52.06L530 104.12V0zm176.87 0L530 104.12l88.43 52.06 88.44-52.06V0zm176.87 0L706.87 104.12l88.43 52.06 88.44-52.06V0zm176.87 0L883.74 104.12l88.43 52.06 88.44-52.06V0zm175.65 0l-176.87 104.12 88.43 52.06 88.44-52.06V0zm176.87 0l-176.87 104.12 88.43 52.06 88.44-52.06V0zM1590 0l-176.87 104.12 88.43 52.06 88.44-52.06V0zm176.87 0L1590 104.12l88.43 52.06 88.44-52.06V0zm176.87 0l-176.87 104.12 88.43 52.06 88.44-52.06V0zm176.87 0l-176.87 104.12 88.43 52.06 88.44-52.06V0z" fill="#485257" fill-rule="evenodd" opacity=".2"/></svg>