<svg xmlns="http://www.w3.org/2000/svg" width="416.16" height="362.87"><path data-name="シェイプ 4" d="M208-.01L69.22 80.63l69.39 40.32L208 80.63V-.01zm138.77 0L208 80.63l69.39 40.32 69.38-40.32V-.01zM208 241.91L69.22 322.55l69.39 40.33L208 322.55v-80.64zm138.77 0L208 322.55l69.39 40.33 69.38-40.33v-80.64zM138.61 120.95L-.17 201.59l69.39 40.32 69.39-40.32v-80.64zm138.78 0l-138.78 80.64L208 241.91l69.39-40.32v-80.64zm138.77 0l-138.77 80.64 69.38 40.32 69.39-40.32v-80.64z" fill="#272e30" fill-rule="evenodd"/></svg>