<svg xmlns="http://www.w3.org/2000/svg" width="258.44" height="26"><path data-name="シェイプ 7" d="M13.25 16.621a5.361 5.361 0 01-2.96 3.971 7.923 7.923 0 01-3.62.7 8.687 8.687 0 01-2.47-.359 6.14 6.14 0 01-2.13-1.116 5.28 5.28 0 01-1.51-1.932 6.7 6.7 0 01-.57-2.858v-1.77h4.04v.913a7.293 7.293 0 00.12 1.37 3.087 3.087 0 00.39 1.066 2.108 2.108 0 00.78.7 2.951 2.951 0 001.31.254 2.507 2.507 0 001.36-.312 1.806 1.806 0 00.7-.811 3.728 3.728 0 00.25-1.078c.03-.392.04-.775.04-1.126V.484h4.47v13.938a12.8 12.8 0 01-.2 2.199zm11.76-6.442v3.48h-8.57v-3.48h8.57zm7.69-9.7v20.35h-4.04V.484h4.04zm4.31 3.339V.484h4.04v3.339h-4.04zm4.04 2.281v14.73h-4.04V6.1h4.04zm8.53 0V8.15h.08a4.742 4.742 0 012-1.869 5.756 5.756 0 012.5-.584 6.88 6.88 0 012.67.445 4.035 4.035 0 011.64 1.225 4.8 4.8 0 01.83 1.908 11.956 11.956 0 01.25 2.5v9.057H55.5v-8.316a5.3 5.3 0 00-.56-2.727 2.225 2.225 0 00-2.02-.891 2.788 2.788 0 00-2.4.986 5.467 5.467 0 00-.74 3.228v7.722h-4.04V6.1h3.84zm18.62 11.2a4.159 4.159 0 004.72.273 2.61 2.61 0 001.09-1.3h3.55a6.733 6.733 0 01-2.61 3.792 7.774 7.774 0 01-4.27 1.141 8.485 8.485 0 01-3.14-.557 6.564 6.564 0 01-2.36-1.584 6.9 6.9 0 01-1.49-2.445 8.8 8.8 0 01-.53-3.134 8.549 8.549 0 01.54-3.075 7.185 7.185 0 011.54-2.473 7.109 7.109 0 012.38-1.632 7.378 7.378 0 013.06-.605 7 7 0 013.26.724 6.656 6.656 0 012.3 1.957 8.26 8.26 0 011.29 2.792 10.2 10.2 0 01.28 3.281H67.2a4.079 4.079 0 001 2.846zm4.56-7.746a2.852 2.852 0 00-2.2-.8 3.512 3.512 0 00-1.6.327 3.135 3.135 0 00-1.04.814 3 3 0 00-.53 1.024 3.949 3.949 0 00-.19.966h6.57a4.589 4.589 0 00-1.01-2.329zm26.67-3.642a4.446 4.446 0 00-.99-1.124 4.6 4.6 0 00-1.35-.751 4.493 4.493 0 00-1.58-.274 5.3 5.3 0 00-2.57.586 4.909 4.909 0 00-1.7 1.562 6.864 6.864 0 00-.95 2.242 11.114 11.114 0 00-.3 2.591 10.387 10.387 0 00.3 2.5 6.726 6.726 0 00.95 2.175 5.026 5.026 0 001.7 1.552 5.249 5.249 0 002.57.581 4.117 4.117 0 003.2-1.254 5.741 5.741 0 001.41-3.3h4.33a10.615 10.615 0 01-.88 3.449 8.528 8.528 0 01-1.88 2.617 7.912 7.912 0 01-2.74 1.652 9.854 9.854 0 01-3.44.574 10.591 10.591 0 01-4.2-.806 9.046 9.046 0 01-3.14-2.246 9.953 9.953 0 01-1.97-3.339 12.513 12.513 0 01-.68-4.155 12.9 12.9 0 01.68-4.232 10.147 10.147 0 011.97-3.4A8.986 8.986 0 0191.31.825a10.244 10.244 0 014.2-.824 10.137 10.137 0 013.18.482 8.578 8.578 0 012.66 1.414 7.39 7.39 0 011.95 2.291 8.245 8.245 0 01.98 3.143h-4.33a3.733 3.733 0 00-.52-1.418zm8.98 4.363a6.673 6.673 0 013.92-4.012 8.331 8.331 0 013.13-.562 8.456 8.456 0 013.15.562 6.707 6.707 0 012.4 1.564 6.825 6.825 0 011.53 2.448 8.871 8.871 0 01.55 3.214 8.713 8.713 0 01-.55 3.186 6.87 6.87 0 01-1.53 2.439 6.508 6.508 0 01-2.41 1.547 8.67 8.67 0 01-3.14.545 8.577 8.577 0 01-3.13-.545 6.621 6.621 0 01-2.39-1.547 6.733 6.733 0 01-1.53-2.439 9.751 9.751 0 010-6.398zm3.66 4.931a4.675 4.675 0 00.59 1.513 3.149 3.149 0 001.09 1.068 3.391 3.391 0 001.71.392 3.43 3.43 0 001.72-.392 3.124 3.124 0 001.11-1.068 4.893 4.893 0 00.59-1.513 9.772 9.772 0 00.16-1.72 9.19 9.19 0 00-.16-1.739 4.646 4.646 0 00-.59-1.511 3.257 3.257 0 00-1.11-1.071 3.335 3.335 0 00-1.72-.414 3.084 3.084 0 00-2.8 1.487 4.408 4.408 0 00-.59 1.509 10.1 10.1 0 00-.17 1.739 9.775 9.775 0 00.17 1.722zm18.73-9.1v2.739h.06a5.118 5.118 0 011.88-2.269 5.513 5.513 0 011.33-.644 4.946 4.946 0 011.48-.228 3.507 3.507 0 01.88.14v3.766a6.592 6.592 0 00-.67-.1 6.682 6.682 0 00-.77-.041 4.232 4.232 0 00-1.88.371 3.281 3.281 0 00-1.24 1 4.173 4.173 0 00-.67 1.5 8.386 8.386 0 00-.2 1.86v6.633h-4.04V6.1h3.84zm12.57 0v1.882h.06a4.432 4.432 0 011.89-1.741 5.713 5.713 0 012.5-.543 6.294 6.294 0 012.98.659 6.052 6.052 0 012.08 1.741 7.383 7.383 0 011.23 2.523 11.43 11.43 0 01.39 3 10.385 10.385 0 01-.39 2.855 7.349 7.349 0 01-1.21 2.415 5.907 5.907 0 01-4.85 2.312 5.815 5.815 0 01-2.53-.557 4.894 4.894 0 01-1.89-1.632h-.05v6.976h-4.05l.01-19.893h3.83zm5.26 11.684a3.368 3.368 0 001.08-1.041 4.81 4.81 0 00.59-1.5 9.113 9.113 0 00.16-1.739 7.734 7.734 0 00-.19-1.734 4.468 4.468 0 00-.6-1.53 3.5 3.5 0 00-1.1-1.08 3.039 3.039 0 00-1.64-.409 3.171 3.171 0 00-1.67.409 3.431 3.431 0 00-1.07 1.073 4.408 4.408 0 00-.59 1.509 9.276 9.276 0 00-.17 1.763 8.385 8.385 0 00.19 1.739 4.578 4.578 0 00.59 1.5 3.129 3.129 0 002.76 1.433 3.248 3.248 0 001.66-.394zm9.63-7.512a6.724 6.724 0 013.93-4.012 8.277 8.277 0 013.13-.562 8.366 8.366 0 013.14.562 6.873 6.873 0 012.42 1.562 7.3 7.3 0 011.53 2.45 9.087 9.087 0 01.54 3.211 8.941 8.941 0 01-.54 3.189 7.317 7.317 0 01-1.53 2.439 6.742 6.742 0 01-2.42 1.547 8.67 8.67 0 01-3.14.545 8.577 8.577 0 01-3.13-.545 6.621 6.621 0 01-2.39-1.547 7.035 7.035 0 01-1.54-2.439 8.933 8.933 0 01-.54-3.189 9.087 9.087 0 01.54-3.212zm3.67 4.931a4.657 4.657 0 00.59 1.513 3.149 3.149 0 001.09 1.068 3.391 3.391 0 001.71.392 3.43 3.43 0 001.72-.392 3.124 3.124 0 001.11-1.068 4.445 4.445 0 00.58-1.513 8.913 8.913 0 00.18-1.72 9.207 9.207 0 00-.18-1.739 4.2 4.2 0 00-.58-1.509 3.179 3.179 0 00-1.11-1.073 3.335 3.335 0 00-1.72-.414 3.084 3.084 0 00-2.8 1.487 4.408 4.408 0 00-.59 1.509 9.2 9.2 0 00-.17 1.739 8.91 8.91 0 00.17 1.719zm17.48-9.1v2.741h.05a4.951 4.951 0 01.77-1.273 5.161 5.161 0 011.11-1 5.581 5.581 0 011.34-.644 4.849 4.849 0 011.48-.228 3.507 3.507 0 01.88.14V9.61c-.19-.036-.42-.07-.69-.1a6.4 6.4 0 00-.76-.041 4.187 4.187 0 00-1.87.371 3.167 3.167 0 00-1.25 1 4.352 4.352 0 00-.67 1.5 8.4 8.4 0 00-.2 1.86l.01 6.636h-4.05V6.1h3.85zm9.35 2.169a4.879 4.879 0 011.59-1.513 6.927 6.927 0 012.18-.814 12.178 12.178 0 012.43-.245 17.1 17.1 0 012.25.155 7.007 7.007 0 012.08.617 4.141 4.141 0 011.54 1.269 3.61 3.61 0 01.59 2.15v7.661a14.5 14.5 0 00.12 1.908 3.365 3.365 0 00.4 1.371h-4.1a4.069 4.069 0 01-.18-.7 5.664 5.664 0 01-.11-.719 5.3 5.3 0 01-2.27 1.4 9.05 9.05 0 01-2.67.4 7.249 7.249 0 01-1.97-.262 4.513 4.513 0 01-1.59-.791 3.638 3.638 0 01-1.07-1.371 4.72 4.72 0 01-.39-1.969 4.213 4.213 0 01.45-2.061 3.724 3.724 0 011.13-1.3 5.424 5.424 0 011.6-.726 17.9 17.9 0 011.81-.385c.6-.094 1.2-.17 1.79-.225a11.31 11.31 0 001.56-.257 2.569 2.569 0 001.08-.506 1.073 1.073 0 00.37-.942 2.316 2.316 0 00-.2-1.044 1.5 1.5 0 00-.58-.591 2.126 2.126 0 00-.82-.293 7.043 7.043 0 00-1.01-.073 3.036 3.036 0 00-1.88.519 2.287 2.287 0 00-.8 1.71h-4.04a4.776 4.776 0 01.71-2.376zm7.98 5.71c-.25.08-.53.155-.82.218s-.61.1-.93.143-.64.078-.96.133a8.067 8.067 0 00-.9.227 2.689 2.689 0 00-.76.388 1.659 1.659 0 00-.53.615 1.979 1.979 0 00-.21.939 1.915 1.915 0 00.21.908 1.552 1.552 0 00.54.586 2.2 2.2 0 00.79.3 5.168 5.168 0 00.94.085 3.617 3.617 0 001.85-.4 2.537 2.537 0 00.96-.957 3.055 3.055 0 00.39-1.125 7.145 7.145 0 00.07-.908v-1.514a1.842 1.842 0 01-.64.359zm17.06-7.88v2.71h-2.96v7.289a2.006 2.006 0 00.34 1.363 1.975 1.975 0 001.37.346c.23 0 .45-.007.66-.026s.41-.044.59-.085v3.131a10.752 10.752 0 01-1.14.111c-.41.022-.82.034-1.21.037a12.365 12.365 0 01-1.79-.131 4.116 4.116 0 01-1.47-.508 2.517 2.517 0 01-1.01-1.046 3.621 3.621 0 01-.38-1.8V8.814h-2.44V6.1h2.44V1.685h4.04V6.1h2.96zm3.56-2.281V.484h4.04v3.339h-4.04zm4.04 2.281v14.73h-4.04V6.1h4.04zm4.67 4.172a6.9 6.9 0 011.55-2.45A6.779 6.779 0 01230 6.267a9.028 9.028 0 016.27 0 6.651 6.651 0 013.94 4.012 8.867 8.867 0 01.55 3.211 8.717 8.717 0 01-.55 3.189 6.87 6.87 0 01-1.53 2.439 6.7 6.7 0 01-2.41 1.547 8.632 8.632 0 01-3.14.545 8.536 8.536 0 01-3.13-.545 6.646 6.646 0 01-2.38-1.547 6.914 6.914 0 01-1.55-2.439 9.159 9.159 0 01-.54-3.189 9.318 9.318 0 01.54-3.214zm3.67 4.931a4.913 4.913 0 00.59 1.513 3.149 3.149 0 001.09 1.068 3.391 3.391 0 001.71.392 3.43 3.43 0 001.72-.392 3.154 3.154 0 001.12-1.068 4.63 4.63 0 00.57-1.513 8.913 8.913 0 00.18-1.72 9.207 9.207 0 00-.18-1.739 4.2 4.2 0 00-.58-1.509 3.159 3.159 0 00-1.11-1.073 3.335 3.335 0 00-1.72-.414 3.087 3.087 0 00-2.8 1.485 4.646 4.646 0 00-.59 1.511 9.2 9.2 0 00-.17 1.739 9.775 9.775 0 00.17 1.717zm18.75-9.1v2.051h.09a4.554 4.554 0 011.99-1.869 5.724 5.724 0 012.5-.584 6.845 6.845 0 012.67.445 3.935 3.935 0 011.63 1.225 4.814 4.814 0 01.84 1.908 11.986 11.986 0 01.24 2.5v9.057h-4.04v-8.327a5.189 5.189 0 00-.57-2.727 2.2 2.2 0 00-2.02-.891 2.78 2.78 0 00-2.39.986 5.467 5.467 0 00-.74 3.228v7.722h-4.04V6.1h3.84z" fill="#fff" fill-rule="evenodd"/></svg>