<svg xmlns="http://www.w3.org/2000/svg" width="53.59" height="64.34"><path data-name="レイヤー 9" d="M29.47 64.34h-5.36a2.713 2.713 0 01-2.02-.91l-1.55-1.77h12.49l-1.55 1.77a2.691 2.691 0 01-2.01.91zm5-8.04a1.341 1.341 0 110 2.68H19.1a1.341 1.341 0 110-2.68h15.37zm-7.69-45.57c7.99 0 16.09 5.28 16.09 15.37 0 5.19-2.6 9.71-5.11 14.08-2.43 4.22-4.94 8.58-4.95 13.44h2.69c0-8.81 10.05-16.36 10.05-27.52 0-11.63-9.39-18.05-18.77-18.05S8.02 14.46 8.02 26.1c0 11.16 10.06 18.71 10.06 27.52h2.67c.01-4.86-2.51-9.22-4.93-13.44-2.52-4.37-5.12-8.89-5.12-14.08 0-10.09 8.09-15.37 16.08-15.37zm25.26 21.33a1.338 1.338 0 11-1.1 2.44l-2.44-1.1a1.343 1.343 0 011.1-2.45zm-50.51 0a1.34 1.34 0 101.11 2.44l2.44-1.1a1.345 1.345 0 00-1.11-2.45zm50.72-7.93h-2.68a1.34 1.34 0 010-2.68h2.68a1.34 1.34 0 110 2.68zM4 21.45a1.34 1.34 0 110 2.68H1.32a1.34 1.34 0 010-2.68H4zm45.08-8.28a1.34 1.34 0 10-1.53-2.2l-2.2 1.53a1.34 1.34 0 001.53 2.2zm-44.59 0a1.34 1.34 0 111.53-2.2l2.2 1.53a1.34 1.34 0 11-1.53 2.2zm35.74-8.12a1.341 1.341 0 10-2.34-1.31l-1.31 2.34a1.341 1.341 0 002.34 1.31zm-26.88 0a1.341 1.341 0 112.34-1.31l1.3 2.34a1.341 1.341 0 01-2.34 1.31zm14.78-3.7a1.34 1.34 0 10-2.68 0v2.68a1.34 1.34 0 002.68 0V1.35z" fill="#ddd" fill-rule="evenodd"/></svg>